<?xml version="1.0" encoding="iso-8859-1"?>
<!-- Generator: Adobe Illustrator 18.0.0, SVG Export Plug-In . SVG Version: 6.00 Build 0)  -->
<!DOCTYPE svg PUBLIC "-//W3C//DTD SVG 1.1//EN" "http://www.w3.org/Graphics/SVG/1.1/DTD/svg11.dtd">
<svg version="1.1" id="Capa_1" xmlns="http://www.w3.org/2000/svg" xmlns:xlink="http://www.w3.org/1999/xlink" x="0px" y="0px"
	 viewBox="0 0 444.481 444.481" style="enable-background:new 0 0 444.481 444.481;" xml:space="preserve">
<g>
	<path d="M444.48,99.435c0-7.387-5.378-13.674-12.675-14.818c-9.877-1.549-19.764-2.976-29.659-4.305
		c0.125-0.486,0.224-0.984,0.276-1.499c0.55-5.495-3.459-10.396-8.955-10.945l-43.346-4.335c-5.496-0.563-10.396,3.46-10.945,8.955
		c-0.029,0.285-0.037,0.567-0.042,0.848c-8.224-0.715-16.451-1.358-24.682-1.921V40.915c0-8.284-6.716-15-15-15h-154.42
		c-8.284,0-15,6.716-15,15v30.499c-8.232,0.564-16.46,1.207-24.685,1.922c-0.004-0.281-0.013-0.563-0.042-0.848
		c-0.549-5.496-5.458-9.514-10.945-8.955l-43.347,4.335c-5.496,0.55-9.505,5.45-8.955,10.945c0.051,0.515,0.151,1.013,0.276,1.499
		c-9.895,1.329-19.783,2.755-29.659,4.305C5.378,85.761,0,92.048,0,99.435v304.131c0,8.284,6.716,15,15,15h414.481
		c3.979,0,7.793-1.58,10.606-4.394c2.813-2.813,4.394-6.628,4.394-10.606L444.48,99.435z M160.032,55.915h124.42v13.79
		c-41.457-1.914-82.963-1.914-124.42,0V55.915z M414.481,112.328v48.433c-36.182,43.813-85.485,73.652-140.796,85.211v-11.628
		c0-5.522-4.477-10-10-10h-82.896c-5.523,0-10,4.478-10,10v11.638C115.467,234.412,66.167,204.572,30,160.762l0-48.434
		C157.632,93.567,286.849,93.567,414.481,112.328z M253.685,244.344v55.882c0,7.453-6.063,13.517-13.517,13.517h-35.863
		c-7.453,0-13.517-6.063-13.517-13.517v-55.882H253.685z M30,388.566l0-197.929c38.135,38.97,86.911,65.329,140.789,75.73v33.858
		c0,18.481,15.036,33.517,33.517,33.517h35.863c18.481,0,33.517-15.035,33.517-33.517v-33.867
		c53.87-10.393,102.648-36.751,140.796-75.727v197.934H30z"/>
	<path d="M208.421,304.485h27.632c5.523,0,10-4.478,10-10s-4.477-10-10-10h-27.632c-5.523,0-10,4.478-10,10
		S202.898,304.485,208.421,304.485z"/>
</g>
<g>
</g>
<g>
</g>
<g>
</g>
<g>
</g>
<g>
</g>
<g>
</g>
<g>
</g>
<g>
</g>
<g>
</g>
<g>
</g>
<g>
</g>
<g>
</g>
<g>
</g>
<g>
</g>
<g>
</g>
</svg>
